<?xml version="1.0" standalone="no"?>
<!DOCTYPE svg PUBLIC "-//W3C//DTD SVG 20010904//EN"
 "http://www.w3.org/TR/2001/REC-SVG-20010904/DTD/svg10.dtd">
<svg version="1.0" xmlns="http://www.w3.org/2000/svg"
 width="799.000000pt" height="799.000000pt" viewBox="0 0 799.000000 799.000000"
 preserveAspectRatio="xMidYMid meet">
<metadata>
Created by potrace 1.14, written by Peter Selinger 2001-2017
</metadata>
<g transform="translate(0.000000,799.000000) scale(0.100000,-0.100000)"
fill="#000000" stroke="none">
<path d="M5093 7254 c4 -7 0 -14 -8 -18 -8 -3 -15 0 -15 7 0 8 -4 7 -9 -3 -6
-8 -7 -18 -4 -24 4 -5 1 -6 -8 0 -21 13 -39 14 -39 2 0 -6 8 -7 18 -3 13 5 14
4 5 -6 -10 -10 -17 -9 -34 6 -11 11 -20 15 -19 10 5 -24 -1 -27 -16 -9 -8 10
-13 13 -9 7 3 -7 0 -14 -7 -14 -7 -1 -19 -2 -26 -3 -7 0 -17 -8 -23 -16 -10
-13 -10 -13 -6 0 4 13 -3 16 -33 15 -29 0 -36 -3 -32 -15 5 -12 3 -13 -9 -3
-12 10 -18 10 -27 1 -9 -9 -15 -9 -24 1 -9 10 -9 12 -1 7 6 -3 14 -3 17 2 2 4
-6 8 -20 8 -15 0 -24 -6 -25 -15 0 -11 -3 -10 -9 4 -5 11 -9 15 -9 8 -1 -7 -8
-10 -18 -6 -11 5 -14 3 -8 -6 4 -8 -4 -6 -19 4 -25 17 -26 17 -19 0 5 -14 3
-16 -8 -9 -19 12 -79 13 -86 1 -4 -6 -1 -7 7 -2 9 6 11 4 5 -5 -6 -10 -12 -7
-27 11 -14 18 -17 20 -11 5 5 -15 3 -17 -8 -10 -8 4 -24 7 -37 5 -13 -1 -30 3
-38 10 -12 10 -13 9 -8 -6 5 -13 3 -16 -7 -13 -8 3 -13 12 -11 19 3 11 1 11
-9 2 -6 -6 -18 -9 -27 -6 -11 5 -13 2 -7 -8 6 -11 5 -12 -5 -2 -11 10 -17 10
-30 -2 -14 -13 -17 -13 -17 0 0 8 5 11 10 8 6 -4 7 -1 2 6 -5 9 -10 10 -18 2
-7 -7 -16 -7 -29 0 -13 7 -18 6 -18 -3 0 -9 -3 -9 -11 2 -8 12 -12 12 -16 2
-4 -10 -8 -10 -19 -1 -12 10 -17 9 -27 -1 -10 -10 -9 -11 3 -5 12 6 13 5 3 -5
-11 -12 -15 -11 -26 5 -11 14 -16 15 -22 5 -6 -9 -4 -11 5 -5 9 5 11 4 6 -3
-4 -7 -16 -12 -26 -12 -10 0 -20 -5 -22 -12 -3 -7 -7 -5 -11 6 -5 11 -3 15 5
10 7 -5 8 -3 3 6 -6 10 -11 9 -21 -4 -9 -13 -13 -14 -17 -4 -4 10 -6 10 -6 -1
-1 -11 -4 -11 -16 -1 -12 10 -15 10 -15 0 0 -9 -3 -10 -13 -1 -8 6 -17 8 -20
4 -4 -3 -14 0 -24 8 -9 8 -14 9 -10 2 9 -15 -21 -22 -51 -11 -17 6 -21 5 -16
-5 5 -8 2 -8 -9 2 -15 12 -17 11 -17 -5 0 -17 -1 -17 -16 2 -15 19 -16 19 -9
-1 3 -11 3 -16 -1 -12 -4 4 -14 1 -23 -5 -9 -7 -13 -8 -9 -4 4 5 2 16 -5 25
-11 14 -10 14 6 2 9 -8 17 -9 17 -3 0 18 -24 20 -45 3 -12 -9 -15 -10 -7 -1
16 18 15 27 -3 27 -8 0 -12 -4 -9 -8 2 -4 0 -10 -6 -14 -5 -3 -10 1 -10 9 0
10 -6 13 -15 9 -10 -3 -15 0 -13 8 2 8 -3 12 -12 10 -8 -2 -20 -4 -27 -4 -7 0
-10 -4 -7 -9 3 -4 0 -9 -5 -9 -6 -1 -15 -2 -20 -3 -5 0 -13 -5 -18 -10 -5 -6
-2 -6 7 -1 9 5 12 4 7 -1 -5 -5 -16 -9 -25 -9 -9 0 -16 -5 -15 -11 1 -7 -8 -9
-24 -6 -19 4 -24 2 -18 -8 6 -10 1 -12 -19 -8 -23 5 -25 3 -14 -11 7 -9 8 -13
4 -9 -5 4 -16 2 -24 -5 -13 -9 -14 -9 -8 1 4 6 2 12 -3 12 -6 0 -11 -7 -11
-16 0 -13 -3 -14 -14 -5 -12 10 -17 8 -26 -8 -6 -12 -18 -21 -28 -21 -15 0
-15 -2 -2 -10 13 -8 12 -10 -3 -10 -12 0 -16 -4 -11 -12 4 -7 4 -10 -1 -6 -12
11 -47 -12 -41 -27 3 -8 -2 -12 -11 -11 -9 2 -25 -6 -35 -16 -10 -10 -23 -16
-28 -13 -6 3 -7 -1 -4 -10 5 -11 2 -14 -12 -8 -12 4 -15 3 -10 -5 6 -10 -10
-17 -35 -14 -3 1 -5 -10 -3 -23 1 -14 -3 -28 -8 -32 -6 -3 -8 -2 -5 3 3 6 2
16 -4 24 -5 10 -9 11 -9 3 0 -7 -7 -10 -17 -6 -15 5 -15 3 2 -11 11 -10 14
-15 7 -11 -7 3 -26 -8 -44 -27 -17 -18 -26 -25 -19 -15 10 12 10 17 2 17 -15
0 -25 -26 -16 -40 5 -8 14 -6 28 7 l22 18 -19 -23 c-18 -21 -20 -21 -38 -6
-13 12 -18 13 -18 4 0 -10 -4 -9 -17 1 -9 8 -14 9 -10 2 4 -6 2 -13 -5 -15 -7
-3 -5 -7 6 -11 9 -4 15 -3 11 2 -7 13 23 7 36 -6 8 -8 2 -10 -20 -8 -17 1 -34
-1 -37 -6 -3 -5 -11 -6 -17 -3 -7 4 -9 4 -5 -1 4 -4 3 -14 -3 -22 -6 -7 -8
-13 -5 -13 4 0 -3 -10 -14 -22 -12 -13 -19 -31 -16 -41 2 -10 -4 -27 -14 -37
-14 -14 -15 -21 -6 -30 8 -8 7 -10 -6 -5 -13 5 -15 2 -11 -14 4 -16 1 -21 -13
-22 -12 0 -14 -3 -6 -6 10 -4 9 -9 -5 -20 -10 -8 -12 -12 -5 -8 6 3 12 1 12
-4 0 -6 -5 -11 -11 -11 -8 0 -7 -5 1 -15 11 -13 10 -14 -1 -10 -10 4 -15 -2
-16 -15 -1 -13 3 -18 10 -14 7 3 3 -2 -7 -10 -11 -9 -16 -16 -10 -16 5 0 2 -5
-6 -10 -10 -6 -11 -10 -2 -10 6 0 12 -5 12 -11 0 -5 -4 -8 -9 -5 -5 3 -12 -1
-15 -10 -3 -8 -2 -12 4 -9 6 3 7 -1 4 -9 -3 -9 -10 -14 -14 -11 -4 2 -7 -3 -7
-13 0 -51 -3 -63 -15 -56 -8 5 -8 2 1 -10 8 -9 10 -16 5 -15 -23 4 -26 -2 -8
-16 16 -13 16 -14 1 -9 -13 5 -16 2 -10 -12 4 -11 3 -15 -5 -10 -6 3 -14 2
-17 -4 -4 -6 -3 -9 2 -8 4 2 8 -1 8 -7 0 -5 -3 -9 -8 -7 -4 1 -6 -1 -6 -5 1
-5 1 -10 -1 -13 -1 -3 -3 -16 -6 -29 -3 -19 -1 -22 13 -17 14 6 15 5 6 -5 -10
-10 -15 -9 -27 0 -13 11 -14 9 -6 -18 6 -22 5 -31 -3 -31 -8 0 -8 -3 1 -12 14
-14 16 -52 3 -43 -6 3 -6 -6 -1 -24 6 -21 5 -31 -3 -35 -9 -3 -8 -5 1 -5 6 -1
12 -6 12 -12 0 -5 -6 -7 -12 -3 -10 6 -10 4 0 -8 9 -12 10 -18 2 -23 -8 -5 -6
-13 6 -26 9 -10 13 -19 8 -19 -5 0 -4 -4 1 -8 6 -4 16 -19 24 -34 8 -15 23
-30 34 -34 16 -5 17 -8 6 -15 -17 -10 -19 -29 -6 -47 7 -9 5 -11 -8 -6 -13 5
-16 4 -11 -4 4 -7 2 -12 -5 -12 -8 0 -7 -5 2 -17 10 -11 10 -14 2 -9 -8 4 -13
1 -13 -8 0 -9 -3 -15 -7 -14 -5 2 -9 -1 -10 -6 0 -5 -8 -13 -17 -18 -9 -5 -16
-14 -16 -19 0 -6 6 -7 13 -3 8 5 8 2 -2 -9 -15 -18 -26 -23 -16 -7 3 6 1 10
-6 10 -6 0 -9 -8 -6 -19 4 -15 1 -18 -12 -14 -9 4 -13 3 -9 -2 4 -4 -3 -16
-17 -27 -14 -11 -22 -26 -20 -38 3 -14 -1 -17 -12 -13 -13 5 -15 2 -10 -11 5
-11 3 -15 -5 -10 -7 5 -9 0 -6 -14 6 -23 -13 -47 -27 -34 -5 4 -5 2 -2 -4 4
-7 0 -15 -9 -18 -9 -3 -14 -12 -11 -19 2 -6 -3 -18 -12 -25 -13 -11 -13 -12
-1 -7 8 4 6 -1 -4 -9 -11 -9 -16 -16 -11 -16 5 0 0 -7 -11 -15 -11 -9 -14 -14
-6 -15 7 0 1 -11 -14 -25 -17 -16 -25 -31 -21 -44 3 -15 1 -18 -11 -14 -10 4
-13 2 -8 -5 4 -7 2 -12 -4 -12 -6 0 -8 -5 -5 -10 3 -6 0 -13 -9 -16 -9 -3 -12
-12 -9 -21 5 -12 3 -14 -7 -8 -10 6 -12 4 -6 -10 6 -16 4 -16 -10 -4 -15 12
-16 12 -10 -7 3 -12 0 -28 -10 -40 -15 -18 -15 -18 -4 4 16 34 3 26 -16 -9
-11 -23 -12 -29 -2 -24 7 3 4 -1 -7 -10 -11 -9 -19 -21 -18 -26 2 -5 -2 -9 -7
-9 -7 0 -7 -7 0 -20 6 -11 7 -20 3 -19 -21 4 -31 -3 -29 -18 0 -11 -5 -17 -14
-15 -10 1 -9 -2 4 -13 17 -13 17 -15 4 -15 -9 0 -20 -5 -24 -12 -5 -7 -3 -8 6
-3 9 5 11 4 6 -3 -4 -7 -14 -12 -22 -12 -8 0 -14 -5 -14 -11 0 -5 6 -7 13 -3
9 6 8 3 -1 -8 -8 -10 -20 -14 -29 -11 -11 4 -14 2 -9 -5 4 -7 -3 -16 -18 -23
-15 -7 -23 -18 -21 -28 2 -12 -4 -17 -18 -17 -12 0 -33 -4 -46 -8 -18 -6 -22
-5 -16 5 6 11 5 11 -5 2 -13 -12 -40 -7 -52 11 -5 8 -8 7 -8 -1 0 -7 -7 -10
-17 -6 -10 4 -14 2 -10 -4 4 -7 0 -10 -10 -8 -10 1 -25 -1 -34 -6 -9 -5 -21
-3 -27 3 -9 9 -11 6 -8 -9 3 -12 -1 -20 -9 -20 -8 0 -12 4 -9 8 2 4 -1 11 -7
15 -7 4 -9 3 -6 -3 8 -12 -18 -37 -30 -30 -4 3 -14 -1 -21 -9 -12 -14 -8 -19
13 -14 6 1 6 -2 2 -7 -5 -4 -16 -8 -25 -8 -10 0 -16 -7 -16 -18 1 -13 -2 -15
-10 -8 -8 7 -12 4 -13 -10 -1 -12 3 -17 9 -13 7 4 8 2 4 -5 -6 -9 -11 -9 -22
0 -16 13 -19 -2 -4 -17 8 -8 6 -15 -5 -24 -8 -7 -15 -23 -15 -36 0 -12 -5 -26
-11 -30 -8 -4 -7 -9 2 -15 11 -7 11 -9 -2 -9 -11 0 -15 -9 -14 -35 1 -19 -2
-35 -7 -35 -5 0 -6 -5 -3 -10 4 -6 11 -7 17 -4 7 4 8 2 4 -5 -4 -6 -12 -9 -17
-6 -7 5 -15 -41 -10 -68 1 -4 -3 -16 -8 -26 -7 -12 -6 -22 2 -31 9 -10 9 -11
-1 -6 -6 4 -12 2 -12 -3 0 -6 6 -11 13 -11 8 0 7 -4 -3 -10 -13 -9 -13 -11 0
-20 9 -6 10 -10 3 -10 -9 0 -12 -35 -12 -130 0 -100 2 -129 12 -123 8 4 7 1
-2 -10 -11 -14 -11 -17 0 -17 11 0 11 -2 -1 -10 -8 -5 -10 -10 -3 -10 6 0 10
-13 9 -30 -2 -21 1 -27 10 -20 8 8 10 3 8 -17 -1 -14 -10 -31 -20 -36 -13 -8
-14 -11 -3 -18 10 -6 11 -9 2 -9 -7 0 -13 -9 -13 -21 0 -11 -4 -18 -8 -15 -10
6 -9 -25 2 -42 4 -6 4 -12 -1 -12 -4 0 -8 -11 -8 -25 0 -14 4 -25 8 -25 5 0 6
-4 3 -9 -3 -5 1 -14 10 -21 8 -7 13 -19 10 -27 -5 -12 6 -17 27 -14 4 0 7 -8
7 -19 0 -11 7 -20 15 -20 8 0 15 -4 15 -9 0 -10 39 -27 52 -23 5 1 7 -1 5 -6
-1 -4 3 -9 8 -11 6 -2 15 -11 21 -19 6 -8 16 -12 21 -9 6 4 15 1 20 -6 12 -15
-9 -72 -22 -60 -4 5 -5 3 -1 -4 3 -6 2 -14 -3 -17 -8 -5 -24 -68 -26 -101 0
-5 -4 -16 -9 -24 -6 -10 -5 -12 2 -7 13 8 12 -20 -2 -42 -4 -7 -3 -19 3 -26 7
-9 7 -16 0 -23 -7 -7 -5 -15 6 -27 9 -9 11 -16 5 -16 -6 0 -9 -4 -5 -9 3 -5 1
-13 -5 -16 -8 -5 -7 -11 1 -21 8 -10 8 -14 0 -14 -7 0 -11 -22 -11 -60 0 -33
4 -60 10 -60 5 0 9 -4 7 -9 -1 -5 7 -17 18 -26 11 -9 13 -13 5 -9 -12 6 -13 5
-3 -7 10 -12 9 -20 -3 -37 -8 -12 -12 -27 -9 -32 3 -6 1 -10 -5 -10 -6 0 -8
-4 -5 -10 3 -5 1 -10 -5 -10 -7 0 -10 -7 -6 -15 3 -8 1 -15 -4 -15 -6 0 -10
-5 -10 -11 0 -5 4 -8 9 -5 5 4 7 -3 4 -14 -3 -11 -10 -20 -15 -20 -5 0 -6 -4
-3 -10 3 -5 1 -10 -6 -10 -8 0 -8 -4 -1 -12 5 -7 7 -21 3 -31 -10 -28 -1 -98
13 -90 6 4 5 -1 -3 -10 -7 -9 -9 -17 -4 -17 7 0 13 -22 16 -67 0 -7 4 -13 8
-13 4 0 6 -9 4 -20 -2 -11 1 -23 7 -26 7 -5 8 -2 3 6 -5 9 -4 11 4 6 9 -6 9
-11 0 -22 -9 -11 -8 -14 4 -14 9 0 19 -5 23 -12 4 -7 3 -8 -4 -4 -7 4 -12 2
-12 -3 0 -6 5 -11 11 -11 8 0 8 -4 0 -13 -8 -10 -7 -17 1 -25 7 -7 8 -12 2
-12 -5 0 -10 -11 -10 -25 -1 -14 2 -22 7 -19 5 3 6 -2 3 -11 -4 -9 -13 -14
-22 -10 -12 4 -12 3 -3 -9 9 -11 8 -15 -5 -20 -10 -4 -14 -13 -11 -26 3 -10
-1 -24 -9 -31 -8 -6 -11 -16 -7 -23 4 -6 1 -6 -9 2 -13 10 -15 9 -13 -13 2
-14 -2 -25 -8 -25 -5 0 -7 -3 -4 -7 4 -3 -1 -12 -11 -20 -9 -8 -12 -12 -5 -9
7 4 10 -1 9 -11 -2 -9 -8 -19 -14 -21 -7 -2 -12 -8 -12 -13 0 -6 4 -8 9 -4 5
3 13 1 16 -5 4 -6 3 -10 -2 -9 -4 1 -14 1 -22 0 -11 -1 -11 -4 0 -18 10 -11
10 -14 2 -9 -8 4 -13 2 -13 -8 0 -8 6 -17 13 -19 9 -4 9 -6 -1 -6 -7 -1 -10
-6 -7 -11 3 -5 0 -10 -7 -10 -10 0 -10 -2 1 -9 8 -5 16 -17 17 -25 1 -9 -2
-14 -7 -10 -5 3 -9 0 -9 -5 0 -6 4 -11 8 -11 7 0 12 -24 15 -67 0 -7 4 -13 9
-13 4 0 8 -7 8 -16 0 -9 5 -12 12 -8 8 5 9 0 5 -15 -4 -17 -2 -20 7 -12 9 7
12 3 14 -16 1 -15 9 -34 18 -44 9 -10 13 -23 9 -29 -3 -6 -3 -10 2 -9 25 4 35
-1 24 -14 -15 -19 -1 -30 17 -14 13 9 14 9 8 0 -5 -9 1 -12 23 -9 17 2 28 0
26 -4 -3 -4 2 -11 11 -14 8 -3 12 -2 9 4 -3 5 7 5 25 -1 16 -6 30 -16 30 -22
0 -7 5 -5 10 3 9 13 10 13 11 0 1 -8 1 -19 0 -23 -1 -5 3 -6 9 -2 5 3 10 0 10
-7 0 -11 2 -10 9 0 6 11 10 10 15 -3 3 -10 12 -15 21 -11 14 5 20 -6 16 -28
-1 -5 5 -3 14 4 13 11 15 10 9 -4 -4 -11 -2 -16 7 -14 8 2 13 -3 11 -10 -1 -8
2 -11 7 -8 5 4 16 0 24 -8 8 -8 17 -12 21 -9 3 4 6 -3 6 -15 0 -12 4 -22 10
-22 5 0 7 8 3 17 -5 15 -3 15 9 -1 9 -11 22 -17 31 -13 12 4 15 1 12 -14 -2
-11 0 -17 6 -14 5 4 9 1 9 -5 0 -7 7 -10 15 -7 8 4 17 1 21 -5 5 -7 2 -8 -6
-3 -8 5 -11 4 -6 -3 4 -6 13 -9 21 -5 10 3 15 -1 15 -13 0 -16 2 -17 10 -4 8
13 10 12 10 -3 0 -10 4 -16 9 -13 5 4 11 1 13 -4 2 -6 13 -12 26 -13 12 0 22
-5 22 -9 0 -4 9 -8 21 -8 13 0 18 -4 13 -12 -4 -7 -4 -10 1 -6 4 4 14 3 22 -3
10 -9 17 -8 28 1 13 11 14 10 8 -6 -6 -17 -5 -18 12 -4 15 12 17 12 10 1 -6
-11 -3 -13 14 -8 19 5 20 3 9 -10 -12 -15 -11 -15 10 -4 16 9 22 9 22 0 0 -6
9 -9 20 -6 11 3 23 0 27 -5 4 -7 1 -8 -8 -3 -11 6 -11 5 -2 -5 6 -7 23 -13 37
-12 14 0 23 -4 20 -9 -3 -5 6 -9 20 -9 13 0 31 -7 39 -15 12 -11 17 -12 20 -2
4 9 6 8 6 -2 1 -11 4 -11 16 -1 13 11 14 10 9 -4 -7 -19 7 -21 24 -4 9 9 12 8
12 -4 0 -9 5 -20 12 -24 6 -4 8 -3 4 4 -4 6 1 10 13 9 11 0 17 -5 15 -9 -5 -7
10 -12 29 -9 4 0 7 -7 7 -17 0 -14 2 -15 10 -2 7 11 10 11 10 2 0 -7 5 -10 10
-7 6 3 10 1 10 -4 0 -6 6 -10 13 -8 6 1 11 -3 10 -10 -2 -7 4 -10 12 -6 10 3
29 -9 50 -32 19 -20 35 -30 36 -23 0 7 5 3 11 -9 6 -13 15 -23 20 -23 5 0 6
-6 2 -12 -5 -9 -2 -9 9 1 12 9 17 10 17 2 0 -7 4 -10 9 -7 4 3 7 -6 5 -19 -1
-18 3 -25 14 -26 12 0 13 -2 4 -6 -10 -4 -9 -9 5 -20 11 -9 12 -12 3 -8 -8 3
0 -7 18 -23 17 -15 32 -35 32 -42 0 -7 8 -22 17 -32 15 -17 15 -20 3 -28 -12
-8 -12 -10 -1 -10 9 0 12 -9 9 -29 -2 -17 -1 -28 4 -25 4 3 8 -3 9 -13 0 -10
3 -27 5 -38 3 -11 5 -28 5 -38 0 -11 5 -15 12 -10 7 4 6 -1 -2 -11 -12 -14
-12 -19 -2 -26 11 -6 11 -8 0 -12 -12 -4 -11 -8 1 -23 14 -17 14 -18 -8 -6
-22 12 -23 11 -18 -7 4 -11 2 -23 -3 -27 -6 -3 -8 0 -5 8 3 8 -2 14 -11 14 -9
0 -14 -6 -11 -14 3 -7 2 -12 -2 -11 -17 5 -52 -15 -52 -29 0 -8 -6 -13 -12
-11 -7 3 -21 -5 -31 -16 -10 -12 -15 -15 -12 -8 6 11 3 11 -14 0 -12 -7 -21
-16 -21 -20 0 -4 -7 -5 -15 -2 -8 4 -17 -1 -21 -10 -5 -14 -9 -14 -22 -4 -11
9 -13 9 -9 1 11 -17 -11 -27 -29 -12 -12 10 -13 9 -9 -4 4 -8 1 -18 -6 -23 -8
-5 -10 -3 -4 7 8 12 6 12 -8 0 -10 -8 -20 -11 -23 -8 -3 3 -14 -3 -25 -14 -11
-11 -25 -17 -31 -13 -8 5 -9 2 -5 -10 4 -9 3 -15 -2 -11 -5 3 -16 -1 -24 -9
-8 -8 -17 -12 -21 -9 -3 3 -15 -2 -26 -12 -20 -18 -21 -18 -14 1 7 19 7 19
-14 0 -12 -11 -22 -16 -22 -11 0 4 -6 3 -12 -2 -7 -6 -25 -10 -40 -9 -14 1
-25 -1 -22 -5 2 -4 -3 -10 -12 -13 -9 -4 -13 -2 -8 5 4 8 0 7 -15 0 -11 -7
-21 -8 -21 -4 0 4 -5 1 -10 -7 -9 -13 -10 -13 -10 0 -1 13 -2 12 -10 -1 -6
-10 -20 -15 -35 -14 -14 2 -25 -2 -25 -8 0 -7 -5 -5 -10 3 -8 12 -10 12 -11
-5 0 -12 -3 -15 -6 -7 -4 10 -10 9 -30 -4 -15 -9 -22 -11 -18 -3 6 9 3 11 -9
6 -10 -4 -22 -7 -27 -7 -6 0 -7 -6 -3 -12 5 -9 2 -9 -9 1 -13 10 -17 10 -17 1
0 -7 -7 -10 -16 -6 -9 4 -23 1 -31 -5 -16 -14 -68 -17 -101 -7 -13 5 -21 4
-18 0 3 -4 -13 -8 -35 -8 -21 1 -39 5 -39 10 0 4 -6 6 -14 3 -7 -3 -18 -1 -24
5 -6 6 -12 6 -17 -3 -6 -8 -4 -10 5 -4 8 5 11 4 6 -3 -4 -7 -14 -7 -32 3 -15
7 -33 11 -40 8 -8 -3 -14 1 -14 8 0 11 -3 11 -10 -1 -8 -12 -10 -12 -10 -1 0
8 -7 11 -20 8 -11 -3 -17 -1 -14 4 3 5 -9 8 -28 5 -33 -4 -64 14 -50 30 4 4 1
4 -6 0 -7 -4 -10 -11 -7 -16 3 -4 -2 -11 -11 -14 -10 -4 -13 -2 -9 7 4 6 0 4
-8 -6 -11 -14 -16 -15 -20 -5 -4 8 -6 7 -6 -5 -1 -9 -4 -16 -8 -16 -22 4 -33
-2 -27 -13 5 -9 2 -8 -9 1 -15 12 -17 12 -11 -4 5 -13 4 -16 -5 -11 -8 6 -11
2 -9 -10 2 -11 -2 -18 -8 -17 -5 1 -11 -15 -12 -34 -2 -20 -5 -40 -8 -45 -3
-4 1370 -8 3050 -8 l3056 0 0 894 0 894 -26 17 c-14 9 -34 17 -44 18 -10 1
-16 5 -14 9 3 4 -4 8 -15 8 -10 0 -21 5 -23 10 -2 6 -14 11 -28 12 -14 1 -33
8 -42 16 -10 8 -18 11 -18 6 0 -5 -5 -2 -10 8 -7 10 -17 14 -32 10 -14 -3 -19
-2 -14 6 5 8 -2 12 -19 12 -15 0 -28 7 -32 17 -6 15 -7 15 -14 -3 -7 -17 -8
-17 -8 -1 -1 10 -5 15 -11 12 -5 -3 -10 0 -10 7 0 9 -3 9 -10 -2 -6 -10 -10
-11 -10 -2 0 6 -9 12 -21 12 -13 0 -18 4 -13 12 5 7 2 9 -8 6 -8 -4 -21 -2
-29 2 -7 5 -18 5 -25 -1 -9 -7 -16 -5 -23 8 -9 16 -12 16 -21 3 -6 -10 -10
-11 -10 -2 0 6 -11 12 -25 12 -14 0 -25 5 -25 11 0 6 -7 9 -15 6 -8 -4 -17 -1
-21 5 -5 7 -2 8 7 3 8 -5 11 -4 6 0 -8 9 -39 16 -74 15 -13 0 -23 5 -23 10 0
6 -12 10 -26 10 -14 0 -23 4 -20 9 7 11 -13 9 -33 -3 -9 -6 -12 -5 -7 2 3 6 2
13 -4 17 -5 3 -10 2 -10 -3 0 -5 -13 -7 -30 -4 -18 2 -27 9 -23 15 4 6 0 8
-10 4 -8 -3 -21 1 -28 9 -8 10 -15 11 -24 4 -15 -12 -37 -10 -47 5 -5 6 -8 4
-8 -5 0 -13 -1 -13 -10 0 -7 11 -10 11 -10 2 0 -7 -5 -10 -10 -7 -6 4 -8 11
-5 16 4 5 1 9 -4 9 -6 0 -11 -8 -11 -17 -1 -16 -2 -16 -12 2 -11 19 -11 19
-19 0 -6 -17 -8 -17 -8 -3 -1 12 -6 15 -18 11 -11 -4 -14 -3 -9 5 4 7 1 12 -9
12 -9 0 -14 -4 -11 -8 3 -5 -1 -9 -9 -9 -8 0 -12 4 -10 8 3 4 -2 10 -11 13 -8
3 -12 2 -9 -4 3 -6 3 -11 -2 -11 -34 -6 -52 -5 -48 1 3 4 -4 10 -15 13 -11 3
-18 1 -15 -3 3 -5 1 -11 -5 -15 -5 -3 -10 -2 -10 3 0 6 -7 12 -15 16 -8 3 -14
2 -14 -2 3 -19 -2 -26 -10 -13 -5 8 -14 10 -22 5 -7 -4 -24 -9 -37 -10 -18 -2
-22 1 -17 14 5 14 4 14 -12 1 -12 -10 -40 -15 -85 -14 -38 0 -68 -3 -68 -6 0
-3 -12 -4 -26 -1 -18 3 -25 1 -20 -6 3 -6 -1 -9 -10 -8 -9 1 -25 17 -36 34
-17 27 -17 31 -4 26 18 -7 19 15 1 28 -6 5 -3 8 6 8 9 0 24 9 34 20 10 11 13
20 7 20 -6 0 -13 -6 -15 -12 -4 -10 -6 -10 -6 0 -1 7 6 15 14 18 8 4 12 10 9
15 -3 5 -1 9 5 9 6 0 8 7 5 15 -4 8 1 17 10 21 12 5 13 10 5 25 -7 15 -7 19 3
17 7 -2 12 2 11 9 -2 8 4 10 15 6 9 -3 14 -2 9 2 -4 5 1 17 10 28 14 15 14 19
3 13 -8 -4 -5 1 8 10 12 9 22 23 22 31 0 8 4 12 9 8 6 -3 8 4 6 15 -2 11 -1
18 4 16 12 -8 30 9 34 32 2 12 7 25 12 29 4 5 5 1 0 -7 -4 -8 1 -6 12 5 14 13
16 22 9 27 -7 5 -4 8 8 8 11 0 16 5 13 14 -3 8 5 18 19 25 14 6 22 15 19 21
-3 5 3 14 14 20 12 6 18 18 16 29 -2 12 2 18 13 17 11 -1 17 6 16 20 0 15 4
20 13 17 8 -3 13 0 11 8 -2 8 3 13 11 11 12 -3 12 0 1 13 -11 13 -10 15 2 10
18 -7 31 28 15 44 -7 7 -3 8 13 4 17 -5 21 -3 15 6 -5 8 5 24 25 42 18 17 30
33 27 36 -4 3 2 13 11 22 10 9 11 12 3 6 -9 -6 -5 4 8 23 12 17 27 32 32 32 5
0 9 7 9 15 0 7 6 18 13 22 16 10 46 49 30 40 -6 -4 -15 -2 -19 4 -4 8 -3 9 4
5 7 -4 12 -2 12 5 0 8 4 8 15 -1 13 -11 14 -10 10 3 -4 9 3 21 17 31 12 9 18
16 12 16 -5 0 -16 -6 -24 -13 -8 -6 -5 0 8 14 12 14 22 30 22 36 0 7 9 15 20
18 18 6 24 18 23 51 0 6 10 9 24 6 13 -2 23 -1 22 4 -4 21 2 34 14 31 6 -1 11
4 10 11 -2 6 5 12 15 12 14 0 15 2 2 10 -13 8 -13 10 1 10 9 0 21 12 28 27 11
25 11 25 -6 12 -16 -13 -17 -12 -4 4 7 9 20 17 27 17 8 0 11 6 7 17 -4 11 -3
14 5 9 8 -4 12 0 12 11 0 15 2 15 9 4 8 -12 12 -12 25 -2 9 7 13 18 9 24 -3 6
-1 7 5 3 9 -5 9 -13 2 -26 -7 -13 -7 -21 2 -26 7 -4 10 -4 6 1 -4 4 -1 14 7
21 17 17 29 18 19 2 -4 -7 -3 -8 4 -4 7 4 12 1 12 -6 0 -10 2 -10 9 1 5 8 16
11 26 8 9 -4 14 -3 11 2 -3 5 4 11 15 14 12 3 19 10 16 14 -3 5 -1 15 4 23 6
10 8 3 4 -22 -3 -31 -2 -36 9 -26 7 7 11 25 10 40 -2 16 1 28 7 28 8 0 7 6 -2
18 -7 9 -9 14 -5 10 5 -4 15 0 23 10 10 13 13 14 11 2 -2 -8 -7 -18 -13 -22
-6 -5 -5 -8 3 -8 6 0 15 0 19 0 4 0 8 11 9 24 0 14 -2 25 -5 24 -20 -2 -31 3
-26 12 3 6 -1 13 -10 16 -13 5 -13 9 -3 23 12 15 11 15 -6 1 -18 -14 -19 -13
-13 3 4 10 3 16 -2 13 -5 -3 -8 11 -7 32 2 20 -4 45 -12 54 -12 15 -12 20 2
39 12 17 13 27 4 43 -10 19 -9 19 5 8 13 -11 15 -10 13 12 -2 14 2 24 7 23 14
-3 16 24 4 41 -6 8 -6 12 2 12 12 0 10 27 -3 49 -6 9 -5 12 1 8 7 -4 10 5 9
23 0 17 -5 30 -10 30 -4 0 -3 6 3 14 8 10 9 16 1 21 -5 3 -10 15 -10 25 0 31
-22 71 -36 66 -9 -3 -11 1 -7 11 4 11 2 14 -5 9 -7 -4 -12 -1 -12 9 0 11 -5
15 -14 12 -10 -4 -13 0 -11 14 2 12 -4 24 -16 32 -10 6 -19 20 -19 29 0 10 -6
18 -14 18 -8 0 -17 7 -20 16 -5 14 -4 15 9 4 13 -11 14 -10 9 4 -3 9 -1 23 6
31 6 8 9 19 5 25 -3 5 0 10 7 10 10 0 10 2 -1 9 -9 6 -10 11 -2 15 6 4 8 13 4
19 -4 6 -6 39 -5 72 1 42 -1 55 -8 45 -8 -12 -10 -11 -10 8 0 12 -7 30 -15 40
-9 9 -27 32 -41 50 -14 17 -29 30 -34 27 -8 -5 -32 19 -44 45 -4 8 2 4 14 -10
20 -24 21 -24 10 -2 -6 13 -18 26 -26 29 -9 3 -12 12 -8 25 4 12 2 18 -4 14
-5 -3 -12 11 -16 33 -3 21 -13 44 -21 51 -8 7 -15 19 -15 27 0 9 -5 11 -12 7
-10 -6 -10 -5 -2 7 9 11 9 17 -1 26 -7 6 -16 9 -20 5 -4 -4 -2 4 5 18 7 14 9
22 5 18 -5 -5 -13 2 -20 15 -8 15 -8 24 -1 29 7 5 4 8 -6 8 -12 0 -15 6 -10
22 4 15 2 19 -7 14 -8 -5 -12 -3 -10 5 3 25 -1 40 -9 35 -5 -3 -9 1 -9 9 0 8
5 11 11 8 6 -4 5 1 -2 10 -8 9 -11 21 -8 26 4 5 1 13 -5 17 -8 5 -9 3 -4 -7 5
-8 4 -11 0 -7 -5 5 -10 20 -11 35 -2 15 -8 29 -14 31 -5 2 -10 8 -10 13 0 6 6
7 13 4 6 -4 2 2 -11 14 -15 13 -19 22 -11 27 7 4 1 15 -17 31 -16 13 -23 22
-16 18 18 -9 15 4 -6 23 -10 10 -11 13 -3 7 12 -8 13 -7 6 5 -4 8 -15 24 -24
34 -13 16 -13 18 -1 11 13 -8 13 -7 0 11 -8 10 -19 22 -25 26 -6 5 -5 8 4 8 7
0 1 12 -16 28 -27 25 -44 53 -48 77 0 6 -7 9 -13 7 -10 -2 -10 3 -2 17 7 14 7
22 -2 27 -7 5 -8 3 -3 -6 5 -9 4 -11 -4 -6 -9 6 -9 11 0 22 9 11 8 15 -4 20
-9 3 -13 12 -10 21 4 11 2 14 -5 9 -8 -5 -10 -2 -6 8 3 9 1 16 -5 16 -6 0 -10
3 -10 8 4 24 -3 42 -16 42 -9 0 -12 6 -8 17 5 12 3 14 -8 8 -12 -8 -12 -6 0 8
9 11 10 17 2 17 -6 0 -11 7 -11 15 0 8 -4 15 -9 15 -5 0 -12 7 -15 16 -6 15
-4 15 11 4 10 -8 6 -1 -10 14 -15 15 -24 32 -21 38 4 6 3 8 -3 5 -6 -4 -15 5
-21 18 -7 14 -16 25 -22 25 -5 0 -9 3 -9 8 3 19 -2 33 -11 27 -5 -3 -10 -1
-10 5 0 15 -26 40 -42 40 -10 0 -9 3 2 10 12 8 9 10 -13 10 -16 0 -26 5 -25
13 2 7 -6 11 -22 9 -22 -4 -23 -2 -10 14 13 16 13 17 -2 11 -10 -4 -18 -2 -18
4 0 6 -6 9 -14 6 -8 -3 -13 1 -12 11 1 11 -5 16 -18 14 -10 -2 -15 1 -12 6 7
11 -40 53 -50 44 -4 -4 -4 -1 0 6 4 6 0 19 -8 28 -9 8 -16 12 -16 8 0 -3 -7
-1 -15 6 -8 7 -12 17 -8 24 3 6 3 8 -2 4 -4 -4 -14 0 -22 8 -8 8 -19 12 -24 8
-5 -3 -8 0 -7 8 2 7 -3 12 -9 11 -7 -2 -13 5 -13 14 0 9 -3 14 -6 10 -8 -8
-34 18 -34 33 0 6 -4 8 -10 5 -9 -6 -14 8 -11 28 0 4 -6 7 -14 7 -8 0 -15 3
-14 8 2 12 -13 52 -20 52 -3 0 -12 14 -19 30 -9 18 -18 27 -25 23 -9 -5 -9 -3
-1 8 9 11 9 17 -1 26 -7 6 -16 9 -21 5 -4 -4 -4 -2 0 5 3 6 2 14 -4 18 -6 4
-8 11 -5 16 4 5 -2 9 -11 9 -10 0 -14 3 -11 7 9 8 -13 34 -23 28 -4 -2 -6 7
-4 20 1 14 -3 25 -9 25 -5 0 -7 3 -4 6 3 4 -5 15 -18 26 -14 11 -23 23 -20 28
3 5 -8 6 -25 4 -19 -3 -30 -1 -30 7 0 8 -5 7 -17 -2 -10 -8 -14 -9 -10 -2 4 6
3 14 -3 18 -5 3 -10 1 -10 -5 0 -6 -5 -8 -10 -5 -6 4 -8 11 -5 16 9 13 -9 11
-24 -3 -11 -10 -13 -10 -7 0 7 12 -1 15 -39 14 -11 0 -23 5 -27 12 -5 7 -8 4
-8 -8 0 -16 -3 -17 -12 -8 -14 14 -32 16 -23 2 3 -6 -1 -7 -9 -4 -9 3 -16 11
-16 18 0 6 -5 4 -10 -4 -7 -11 -10 -11 -10 -2 0 7 -4 10 -10 7 -5 -3 -10 1
-10 9 0 9 -5 16 -11 16 -5 0 -7 -6 -4 -12 4 -7 -2 -2 -13 11 -12 15 -24 21
-32 16 -8 -5 -11 -4 -7 2 3 5 -3 16 -14 23 -10 8 -19 20 -19 27 0 6 -9 18 -20
26 -11 8 -17 17 -13 20 3 4 1 7 -6 7 -7 0 -9 4 -6 10 4 6 -1 7 -11 3 -13 -5
-15 -3 -9 7 5 9 4 11 -4 6 -9 -6 -9 -12 1 -24 11 -15 11 -15 -3 -5 -9 7 -20 9
-24 5 -5 -4 -5 1 -2 11 6 15 4 16 -13 7 -13 -7 -21 -7 -26 2 -4 7 -3 8 4 4 7
-4 12 -4 12 1 0 4 -12 13 -26 20 -23 11 -24 10 -12 -5 12 -15 11 -16 -5 -3
-10 8 -16 20 -13 27 3 8 2 13 -2 13 -20 -3 -33 2 -27 11 6 9 -16 15 -39 11 -5
-1 -4 4 3 13 9 11 9 16 0 22 -8 5 -9 3 -4 -6 5 -9 4 -11 -3 -6 -7 4 -12 15
-12 25 0 9 -5 22 -11 28 -8 8 -8 13 1 18 8 5 6 13 -6 26 -19 21 -29 53 -13 43
5 -3 9 0 9 5 0 6 -5 11 -11 11 -6 0 -8 7 -5 16 3 8 2 13 -3 10 -5 -3 -12 1
-15 10 -3 8 -2 12 4 9 6 -3 10 -1 10 4 0 6 -5 11 -11 11 -5 0 -8 4 -4 9 3 5 0
13 -6 17 -8 4 -9 3 -5 -4 4 -7 2 -12 -3 -12 -6 0 -11 4 -11 9 0 4 -12 7 -27 5
-15 -1 -34 3 -42 9 -10 8 -13 9 -8 1z m144 -170 c-3 -3 -12 -4 -19 -1 -8 3 -5
6 6 6 11 1 17 -2 13 -5z m-2141 -326 c-14 -8 -15 -12 -4 -26 11 -13 11 -14 -2
-7 -8 6 -18 10 -22 11 -5 1 -11 2 -15 3 -3 0 2 10 11 20 10 11 25 17 33 14 13
-5 13 -7 -1 -15z m-26 -48 c0 -5 -3 -9 -7 -9 -27 4 -35 -1 -23 -16 7 -9 8 -15
2 -15 -18 0 -21 29 -4 39 22 13 32 13 32 1z m2875 -69 c3 -5 2 -12 -3 -15 -5
-3 -9 1 -9 9 0 17 3 19 12 6z m-3083 -468 c-6 -2 -9 -10 -6 -15 4 -7 2 -8 -5
-4 -13 9 -5 26 12 25 9 0 8 -2 -1 -6z m-10 -171 c-7 -2 -10 -8 -6 -13 3 -5 1
-9 -5 -9 -5 0 -9 9 -8 19 1 12 6 17 16 13 10 -4 11 -7 3 -10z m-2 -42 c0 -5
-2 -10 -4 -10 -3 0 -8 5 -11 10 -3 6 -1 10 4 10 6 0 11 -4 11 -10z m8 -44 c9
-21 8 -23 -11 -21 -31 3 -31 3 -18 18 6 8 8 17 4 20 -3 4 -2 7 4 7 5 0 15 -11
21 -24z m12 -46 c0 -5 -4 -10 -10 -10 -5 0 -10 5 -10 10 0 6 5 10 10 10 6 0
10 -4 10 -10z m21 -35 c5 4 6 -2 2 -11 -5 -13 -3 -15 7 -9 9 6 11 4 5 -5 -6
-10 -11 -9 -22 5 -7 11 -13 24 -12 29 0 6 3 5 6 -2 2 -6 9 -10 14 -7z m-128
-300 c-3 -9 -8 -14 -10 -11 -3 3 -2 9 2 15 9 16 15 13 8 -4z m-498 -774 c3 -5
2 -12 -3 -15 -5 -3 -9 1 -9 9 0 17 3 19 12 6z m4974 -175 c-2 -2 -13 8 -23 22
l-19 27 24 -22 c12 -12 21 -24 18 -27z m-74 -476 c3 -5 1 -10 -4 -10 -6 0 -11
5 -11 10 0 6 2 10 4 10 3 0 8 -4 11 -10z m45 -51 c0 -14 -17 -10 -23 5 -4 10
-1 13 9 9 7 -3 14 -9 14 -14z m-30 -14 c14 -19 14 -19 -2 -6 -10 7 -18 18 -18
24 0 6 1 8 3 6 1 -2 9 -13 17 -24z m48 -12 c0 -5 2 -16 7 -26 11 -25 -1 -33
-22 -15 -10 9 -25 13 -33 10 -12 -4 -13 -2 -3 9 10 10 16 9 33 -6 11 -10 20
-13 20 -7 0 6 -4 14 -10 17 -5 3 -10 10 -10 16 0 5 5 9 10 9 6 0 9 -3 8 -7z
m-20 -68 c-3 -3 -9 2 -12 12 -6 14 -5 15 5 6 7 -7 10 -15 7 -18z m202 -189 c0
-3 -4 -8 -10 -11 -5 -3 -10 -1 -10 4 0 6 5 11 10 11 6 0 10 -2 10 -4z m0 -79
c0 -2 -8 -3 -18 -3 -10 0 -19 6 -19 13 0 8 6 9 19 2 10 -5 18 -11 18 -12z m-4
-40 c1 -9 -3 -15 -8 -14 -6 1 -13 -4 -16 -12 -3 -8 0 -11 7 -7 6 4 11 5 11 2
0 -3 -9 -10 -20 -16 -18 -10 -19 -9 -9 17 6 16 10 29 10 31 -1 1 -1 7 -1 13 0
17 23 5 26 -14z m-59 -79 c-3 -7 -5 -2 -5 12 0 14 2 19 5 13 2 -7 2 -19 0 -25z
m102 -5 c2 -2 -1 -3 -7 -3 -6 0 -17 7 -25 15 -12 11 -16 12 -20 2 -2 -6 -8 -8
-13 -4 -18 17 21 26 41 9 11 -9 22 -18 24 -19z m-119 -3 c0 -5 -5 -10 -11 -10
-5 0 -7 5 -4 10 3 6 8 10 11 10 2 0 4 -4 4 -10z m76 -12 c-10 -6 -22 -6 -26
-2 -5 5 3 10 18 11 22 1 24 0 8 -9z m-41 -8 c3 -5 1 -10 -4 -10 -6 0 -11 5
-11 10 0 6 2 10 4 10 3 0 8 -4 11 -10z m85 6 c0 -3 -4 -8 -10 -11 -5 -3 -10
-1 -10 4 0 6 5 11 10 11 6 0 10 -2 10 -4z m-36 -42 c3 -8 2 -12 -4 -9 -6 3
-10 10 -10 16 0 14 7 11 14 -7z m-93 -11 c12 -16 12 -17 -2 -6 -9 7 -20 9 -24
5 -5 -4 -5 -1 -1 6 9 16 11 15 27 -5z m66 -5 c-3 -8 -6 -5 -6 6 -1 11 2 17 5
13 3 -3 4 -12 1 -19z m-20 -1 c0 -8 -6 -14 -14 -14 -9 0 -10 4 -2 14 6 7 12
13 14 13 1 0 2 -6 2 -13z m23 -41 c0 -2 -7 -7 -16 -10 -8 -3 -12 -2 -9 4 6 10
25 14 25 6z m-303 -1365 c0 -11 -5 -18 -9 -15 -4 3 -5 11 -1 19 7 21 12 19 10
-4z"/>
<path d="M3069 6753 c-13 -16 -12 -17 4 -4 16 13 21 21 13 21 -2 0 -10 -8 -17
-17z"/>
<path d="M2835 5910 c-3 -5 -1 -10 4 -10 6 0 11 5 11 10 0 6 -2 10 -4 10 -3 0
-8 -4 -11 -10z"/>
<path d="M2995 6659 c-4 -6 -5 -12 -2 -15 2 -3 7 2 10 11 7 17 1 20 -8 4z"/>
<path d="M7449 3498 c-6 -22 -5 -39 3 -45 7 -4 8 -1 4 6 -5 8 0 14 14 18 16 4
18 8 8 14 -13 8 -27 12 -29 7z"/>
<path d="M6905 2981 c-3 -5 -2 -12 3 -15 5 -3 9 1 9 9 0 17 -3 19 -12 6z"/>
<path d="M1940 2149 c0 -5 5 -7 10 -4 6 3 10 8 10 11 0 2 -4 4 -10 4 -5 0 -10
-5 -10 -11z"/>
<path d="M6810 2140 c0 -5 5 -10 11 -10 5 0 7 5 4 10 -3 6 -8 10 -11 10 -2 0
-4 -4 -4 -10z"/>
<path d="M3150 1029 c0 -5 5 -7 10 -4 6 3 10 8 10 11 0 2 -4 4 -10 4 -5 0 -10
-5 -10 -11z"/>
</g>
</svg>
